<svg width="308" height="308" viewBox="0 0 308 308" fill="none" xmlns="http://www.w3.org/2000/svg">
<path d="M158.694 248.415C226.232 248.415 280.982 245.428 280.982 241.744C280.982 238.059 226.232 235.072 158.694 235.072C91.1561 235.072 36.4058 238.059 36.4058 241.744C36.4058 245.428 91.1561 248.415 158.694 248.415Z" fill="#6CA77C"/>
<path opacity="0.3" d="M158.694 248.415C226.232 248.415 280.982 245.428 280.982 241.744C280.982 238.059 226.232 235.072 158.694 235.072C91.1561 235.072 36.4058 238.059 36.4058 241.744C36.4058 245.428 91.1561 248.415 158.694 248.415Z" fill="white"/>
<path d="M230.963 141.187C230.926 141.187 231.388 138.889 231.437 138.723C231.967 137.085 233.963 134.226 235.891 134.232C236.212 134.242 236.527 134.318 236.816 134.457C237.105 134.596 237.361 134.794 237.569 135.039C237.776 135.283 237.93 135.569 238.02 135.877C238.109 136.185 238.134 136.508 238.09 136.826C237.948 138.187 236.729 139.339 235.626 140.011C234.333 140.817 230.963 141.187 230.963 141.187Z" fill="#6CA77C"/>
<path d="M227.224 125.719C229.042 126.372 229.947 129.735 229.885 131.46C229.885 131.608 229.54 133.924 229.51 133.924H229.473C229.614 134.454 229.768 135.027 229.922 135.649C230.193 136.807 230.489 138.113 230.717 139.567C230.981 141.126 231.154 142.7 231.234 144.279C231.333 146.047 231.273 147.82 231.056 149.577C231.052 149.597 231.052 149.618 231.056 149.638C231.296 149.127 232.004 147.71 232.072 147.606C233.021 146.164 235.694 143.91 237.561 144.452C237.867 144.546 238.149 144.703 238.391 144.914C238.632 145.124 238.826 145.383 238.961 145.674C239.095 145.964 239.168 146.279 239.173 146.6C239.178 146.92 239.115 147.237 238.99 147.532C238.497 148.801 237.019 149.595 235.781 149.946C234.382 150.347 231.265 149.872 231.019 149.835C230.756 151.617 230.373 153.379 229.873 155.108C229.586 156.119 229.274 157.129 228.937 158.139C229.152 157.702 229.356 157.314 229.386 157.258C230.335 155.817 233.009 153.562 234.875 154.098C235.182 154.192 235.465 154.349 235.706 154.559C235.948 154.769 236.143 155.028 236.278 155.319C236.412 155.61 236.485 155.925 236.489 156.246C236.494 156.566 236.431 156.884 236.304 157.178C235.811 158.453 234.333 159.242 233.095 159.599C231.857 159.956 229.171 159.599 228.469 159.507C228.339 159.889 228.21 160.277 228.074 160.659C227.458 162.507 226.793 164.355 226.226 166.166C226.023 166.782 225.844 167.447 225.666 168.088C225.863 167.699 226.029 167.373 226.06 167.33C227.003 165.888 229.682 163.634 231.542 164.17C231.848 164.264 232.131 164.422 232.372 164.632C232.614 164.843 232.808 165.101 232.943 165.391C233.079 165.682 233.152 165.997 233.157 166.317C233.163 166.637 233.102 166.955 232.978 167.25C232.485 168.519 231 169.313 229.762 169.664C228.524 170.016 226.103 169.708 225.265 169.591C225.099 170.256 224.939 170.915 224.81 171.562C224.73 172.005 224.625 172.43 224.569 172.88C224.514 173.33 224.446 173.767 224.385 174.198C224.298 175.042 224.2 175.917 224.138 176.742C224.089 177.315 224.052 177.863 224.015 178.412C224.206 177.796 224.631 176.527 224.662 176.422C225.346 175.068 226.363 173.91 227.619 173.059C227.687 172.904 227.772 172.758 227.871 172.621C228.046 172.352 228.275 172.123 228.544 171.949C228.813 171.774 229.115 171.658 229.432 171.608C229.748 171.558 230.072 171.576 230.381 171.659C230.691 171.742 230.979 171.89 231.228 172.092C232.694 173.324 232.325 176.822 231.653 178.412C231.616 178.504 231.068 179.471 230.717 180.075C230.982 179.755 231.228 179.459 231.506 179.102C232.041 178.449 232.596 177.808 233.187 177.118L234.093 176.139C234.388 175.8 234.746 175.486 235.072 175.159C235.842 174.414 236.661 173.693 237.505 172.985C236.926 172.517 234.912 170.81 234.333 169.652C233.754 168.494 233.341 166.874 233.945 165.654C234.077 165.361 234.269 165.099 234.509 164.886C234.749 164.672 235.032 164.512 235.338 164.415C235.645 164.317 235.968 164.286 236.287 164.322C236.607 164.359 236.915 164.462 237.191 164.626C238.824 165.648 238.99 169.129 238.565 170.786C238.565 170.89 238.097 172.055 237.844 172.689C238.355 172.27 238.861 171.845 239.39 171.457C240.918 170.274 242.501 169.129 244.072 167.977L245.507 166.911C245.304 166.745 242.865 164.773 242.212 163.48C241.639 162.328 241.22 160.702 241.824 159.476C241.956 159.184 242.149 158.922 242.389 158.709C242.629 158.496 242.912 158.336 243.218 158.239C243.524 158.142 243.847 158.11 244.166 158.146C244.485 158.182 244.793 158.285 245.07 158.447C246.702 159.476 246.869 162.956 246.444 164.607C246.413 164.736 245.778 166.412 245.593 166.831C246.647 166.042 247.688 165.254 248.673 164.435C250.023 163.333 251.299 162.143 252.493 160.874C252.4 160.8 249.844 158.755 249.179 157.425C248.6 156.273 248.187 154.646 248.79 153.427C248.922 153.134 249.114 152.872 249.353 152.659C249.593 152.445 249.874 152.284 250.18 152.187C250.486 152.09 250.809 152.059 251.128 152.095C251.447 152.131 251.754 152.235 252.031 152.398C253.669 153.421 253.836 156.901 253.41 158.558C253.38 158.663 252.899 159.944 252.653 160.548L252.751 160.603C253.92 159.295 254.969 157.885 255.887 156.39C256.398 155.577 256.848 154.77 257.267 153.969C256.749 153.636 254.415 152.121 253.682 150.963C252.948 149.805 252.394 148.314 252.856 147.033C252.956 146.731 253.117 146.454 253.33 146.218C253.543 145.982 253.802 145.793 254.092 145.664C254.382 145.534 254.695 145.466 255.013 145.464C255.33 145.462 255.645 145.526 255.936 145.653C257.679 146.491 258.221 149.934 257.981 151.64C257.981 151.733 257.735 152.663 257.556 153.34C257.735 152.977 257.932 152.607 258.098 152.256C258.714 150.938 259.238 149.694 259.669 148.56C259.915 147.944 260.119 147.328 260.285 146.817C259.946 146.201 258.628 143.829 258.499 142.505C258.369 141.181 258.579 139.554 259.583 138.63C259.812 138.406 260.086 138.232 260.386 138.12C260.687 138.008 261.008 137.961 261.328 137.981C261.648 138.002 261.96 138.089 262.245 138.238C262.529 138.387 262.778 138.594 262.977 138.846C264.135 140.392 263.032 143.694 262.034 145.105C261.948 145.222 260.377 146.953 260.359 146.953V146.916C260.186 147.439 260.002 148 259.78 148.603C259.373 149.718 258.893 150.981 258.289 152.299C257.646 153.745 256.92 155.151 256.115 156.513C255.218 158.039 254.187 159.482 253.035 160.825L252.992 160.874C253.472 160.572 254.84 159.79 254.957 159.741C256.546 159.063 260.008 158.675 261.277 160.135C261.48 160.383 261.629 160.67 261.714 160.979C261.8 161.288 261.819 161.612 261.771 161.929C261.724 162.246 261.61 162.549 261.438 162.82C261.266 163.09 261.039 163.321 260.772 163.498C259.657 164.287 257.981 164.114 256.755 163.739C255.369 163.301 253.059 161.188 252.844 161.022C251.643 162.362 250.352 163.62 248.981 164.786C248.181 165.476 247.361 166.141 246.517 166.794C246.942 166.554 247.324 166.338 247.38 166.313C248.963 165.636 252.425 165.248 253.694 166.708C253.898 166.955 254.048 167.243 254.134 167.552C254.219 167.861 254.239 168.185 254.191 168.502C254.144 168.819 254.03 169.123 253.857 169.393C253.684 169.664 253.457 169.895 253.189 170.071C252.08 170.86 250.404 170.687 249.179 170.311C247.953 169.936 245.901 168.161 245.372 167.687L244.405 168.432C242.852 169.621 241.325 170.798 239.815 171.999C239.292 172.424 238.793 172.862 238.288 173.293C238.67 173.077 238.984 172.898 239.039 172.88C240.622 172.196 244.084 171.814 245.353 173.268C245.558 173.515 245.709 173.803 245.795 174.112C245.882 174.421 245.902 174.745 245.854 175.063C245.806 175.38 245.692 175.684 245.519 175.955C245.345 176.225 245.117 176.456 244.848 176.631C243.733 177.42 242.064 177.247 240.838 176.878C239.612 176.508 237.758 174.894 237.142 174.334C236.643 174.796 236.138 175.252 235.676 175.726C235.362 176.052 235.06 176.342 234.752 176.693C234.444 177.044 234.136 177.358 233.865 177.691C233.329 178.344 232.768 179.022 232.257 179.674C231.9 180.124 231.567 180.562 231.234 180.999C231.746 180.574 232.781 179.767 232.873 179.699C234.333 178.787 237.696 177.882 239.175 179.126C239.413 179.341 239.604 179.604 239.735 179.897C239.866 180.191 239.933 180.508 239.933 180.829C239.933 181.151 239.866 181.468 239.735 181.762C239.604 182.055 239.413 182.318 239.175 182.533C238.195 183.475 236.52 183.58 235.251 183.383C233.846 183.161 231.308 181.535 230.994 181.301C230.44 182.028 229.91 182.742 229.417 183.426C227.711 185.785 226.38 187.812 225.469 189.247L225.376 189.389L224.194 188.816C224.255 188.724 224.317 188.637 224.378 188.539C225.333 187.11 226.725 185.089 228.499 182.742C229.06 182.003 229.67 181.221 230.304 180.42C229.644 179.701 229.027 178.945 228.456 178.153C227.095 178.683 224.268 178.707 223.904 178.707C223.849 179.619 223.799 180.506 223.762 181.344C223.639 184.258 223.652 186.685 223.682 188.379V188.582L222.383 187.966C222.383 186.284 222.45 183.999 222.623 181.307C222.678 180.377 222.758 179.385 222.851 178.375C222.487 178.282 219.549 177.525 218.44 176.638C217.436 175.837 216.377 174.531 216.414 173.17C216.41 172.848 216.475 172.53 216.603 172.236C216.731 171.941 216.92 171.677 217.157 171.461C217.394 171.245 217.675 171.081 217.98 170.98C218.285 170.88 218.607 170.845 218.927 170.878C220.843 171.124 222.444 174.217 222.764 175.911C222.764 176.009 222.863 177.143 222.9 177.82C222.943 177.401 222.974 177.001 223.017 176.588C223.103 175.744 223.214 174.9 223.331 173.995C223.399 173.564 223.473 173.126 223.541 172.683C223.608 172.239 223.725 171.784 223.818 171.328C224.052 170.28 224.335 169.227 224.649 168.174C223.91 168.094 221.292 167.786 220.165 167.145C219.038 166.504 217.806 165.371 217.639 164.022C217.587 163.705 217.602 163.38 217.684 163.069C217.766 162.758 217.912 162.468 218.114 162.218C218.316 161.968 218.569 161.764 218.855 161.618C219.142 161.472 219.456 161.389 219.777 161.373C221.705 161.324 223.762 164.139 224.329 165.765C224.366 165.87 224.643 167.083 224.779 167.755C224.976 167.139 225.161 166.486 225.395 165.858C226.011 164.01 226.707 162.199 227.384 160.369C227.594 159.808 227.791 159.248 228 158.694C227.736 158.694 224.612 158.367 223.356 157.646C222.241 157.03 220.997 155.872 220.824 154.523C220.774 154.206 220.79 153.882 220.873 153.572C220.955 153.262 221.102 152.973 221.304 152.723C221.505 152.474 221.757 152.269 222.043 152.123C222.328 151.977 222.641 151.892 222.962 151.874C224.896 151.825 226.953 154.64 227.52 156.266C227.563 156.39 227.957 158.115 228.037 158.589C228.481 157.357 228.918 156.125 229.269 154.893C229.79 153.23 230.202 151.534 230.501 149.817C230.378 149.817 227.113 149.509 225.832 148.77C224.711 148.154 223.467 146.996 223.3 145.647C223.25 145.33 223.267 145.006 223.349 144.696C223.432 144.386 223.579 144.097 223.78 143.847C223.982 143.597 224.233 143.393 224.519 143.246C224.804 143.1 225.118 143.015 225.438 142.998C227.366 142.955 229.423 145.764 229.99 147.39C230.027 147.501 230.329 148.831 230.458 149.466H230.569C230.823 147.731 230.922 145.976 230.865 144.224C230.865 143.257 230.773 142.339 230.68 141.439C230.064 141.439 227.267 141.439 226.035 140.91C224.803 140.38 223.491 139.407 223.171 138.082C223.086 137.772 223.067 137.447 223.115 137.129C223.164 136.811 223.28 136.507 223.454 136.236C223.628 135.966 223.858 135.735 224.128 135.56C224.397 135.384 224.701 135.268 225.019 135.218C226.935 134.959 229.288 137.528 230.033 139.086C230.07 139.172 230.391 140.078 230.606 140.737C230.563 140.337 230.52 139.918 230.464 139.536C230.274 138.088 230.002 136.77 229.756 135.612C229.608 134.953 229.467 134.38 229.325 133.807C228.709 133.499 226.294 132.23 225.463 131.201C224.631 130.173 223.904 128.701 224.231 127.376C224.301 127.06 224.437 126.763 224.631 126.504C224.825 126.245 225.072 126.03 225.354 125.874C225.637 125.717 225.95 125.622 226.273 125.596C226.595 125.569 226.919 125.611 227.224 125.719Z" fill="#6CA77C"/>
<path d="M262.139 155.491C260.63 155.429 257.611 153.883 257.611 153.877C257.611 153.871 259.231 152.201 259.348 152.109C260.697 151.031 263.938 149.75 265.545 150.815C265.808 151.001 266.028 151.239 266.192 151.515C266.356 151.791 266.461 152.098 266.498 152.417C266.536 152.736 266.506 153.059 266.411 153.366C266.316 153.672 266.157 153.956 265.946 154.197C265.083 155.232 263.426 155.54 262.139 155.491Z" fill="#6CA77C"/>
<g opacity="0.5">
<path opacity="0.5" d="M230.964 141.187C230.927 141.187 231.389 138.889 231.438 138.723C231.968 137.085 233.963 134.226 235.892 134.232C236.212 134.242 236.527 134.318 236.816 134.457C237.105 134.596 237.362 134.794 237.569 135.039C237.777 135.283 237.93 135.569 238.02 135.877C238.11 136.185 238.134 136.508 238.091 136.826C237.949 138.187 236.729 139.339 235.627 140.011C234.333 140.817 230.964 141.187 230.964 141.187Z" fill="white"/>
<path opacity="0.5" d="M227.224 125.719C229.042 126.372 229.947 129.735 229.885 131.46C229.885 131.608 229.54 133.924 229.51 133.924H229.473C229.614 134.454 229.768 135.027 229.922 135.649C230.193 136.807 230.489 138.113 230.717 139.567C230.981 141.126 231.154 142.7 231.234 144.279C231.333 146.047 231.273 147.82 231.056 149.577C231.052 149.597 231.052 149.618 231.056 149.638C231.296 149.127 232.004 147.71 232.072 147.606C233.021 146.164 235.694 143.91 237.561 144.452C237.867 144.546 238.149 144.703 238.391 144.914C238.632 145.124 238.826 145.383 238.961 145.674C239.095 145.964 239.168 146.279 239.173 146.6C239.178 146.92 239.115 147.237 238.99 147.532C238.497 148.801 237.019 149.595 235.781 149.946C234.382 150.347 231.265 149.872 231.019 149.835C230.756 151.617 230.373 153.379 229.873 155.108C229.586 156.119 229.274 157.129 228.937 158.139C229.152 157.702 229.356 157.314 229.386 157.258C230.335 155.817 233.009 153.562 234.875 154.098C235.182 154.192 235.465 154.349 235.706 154.559C235.948 154.769 236.143 155.028 236.278 155.319C236.412 155.61 236.485 155.925 236.489 156.246C236.494 156.566 236.431 156.884 236.304 157.178C235.811 158.453 234.333 159.242 233.095 159.599C231.857 159.956 229.171 159.599 228.469 159.507C228.339 159.889 228.21 160.277 228.074 160.659C227.458 162.507 226.793 164.355 226.226 166.166C226.023 166.782 225.844 167.447 225.666 168.088C225.863 167.699 226.029 167.373 226.06 167.33C227.003 165.888 229.682 163.634 231.542 164.17C231.848 164.264 232.131 164.422 232.372 164.632C232.614 164.843 232.808 165.101 232.943 165.391C233.079 165.682 233.152 165.997 233.157 166.317C233.163 166.637 233.102 166.955 232.978 167.25C232.485 168.519 231 169.313 229.762 169.664C228.524 170.016 226.103 169.708 225.265 169.591C225.099 170.256 224.939 170.915 224.81 171.562C224.73 172.005 224.625 172.43 224.569 172.88C224.514 173.33 224.446 173.767 224.385 174.198C224.298 175.042 224.2 175.917 224.138 176.742C224.089 177.315 224.052 177.863 224.015 178.412C224.206 177.796 224.631 176.527 224.662 176.422C225.346 175.068 226.363 173.91 227.619 173.059C227.687 172.904 227.772 172.758 227.871 172.621C228.046 172.352 228.275 172.123 228.544 171.949C228.813 171.774 229.115 171.658 229.432 171.608C229.748 171.558 230.072 171.576 230.381 171.659C230.691 171.742 230.979 171.89 231.228 172.092C232.694 173.324 232.325 176.822 231.653 178.412C231.616 178.504 231.068 179.471 230.717 180.075C230.982 179.755 231.228 179.459 231.506 179.102C232.041 178.449 232.596 177.808 233.187 177.118L234.093 176.139C234.388 175.8 234.746 175.486 235.072 175.159C235.842 174.414 236.661 173.693 237.505 172.985C236.926 172.517 234.912 170.81 234.333 169.652C233.754 168.494 233.341 166.874 233.945 165.654C234.077 165.361 234.269 165.099 234.509 164.886C234.749 164.672 235.032 164.512 235.338 164.415C235.645 164.317 235.968 164.286 236.287 164.322C236.607 164.359 236.915 164.462 237.191 164.626C238.824 165.648 238.99 169.129 238.565 170.786C238.565 170.89 238.097 172.055 237.844 172.689C238.355 172.27 238.861 171.845 239.39 171.457C240.918 170.274 242.501 169.129 244.072 167.977L245.507 166.911C245.304 166.745 242.865 164.773 242.212 163.48C241.639 162.328 241.22 160.702 241.824 159.476C241.956 159.184 242.149 158.922 242.389 158.709C242.629 158.496 242.912 158.336 243.218 158.239C243.524 158.142 243.847 158.11 244.166 158.146C244.485 158.182 244.793 158.285 245.07 158.447C246.702 159.476 246.869 162.956 246.444 164.607C246.413 164.736 245.778 166.412 245.593 166.831C246.647 166.042 247.688 165.254 248.673 164.435C250.023 163.333 251.299 162.143 252.493 160.874C252.4 160.8 249.844 158.755 249.179 157.425C248.6 156.273 248.187 154.646 248.79 153.427C248.922 153.134 249.114 152.872 249.353 152.659C249.593 152.445 249.874 152.284 250.18 152.187C250.486 152.09 250.809 152.059 251.128 152.095C251.447 152.131 251.754 152.235 252.031 152.398C253.669 153.421 253.836 156.901 253.41 158.558C253.38 158.663 252.899 159.944 252.653 160.548L252.751 160.603C253.92 159.295 254.969 157.885 255.887 156.39C256.398 155.577 256.848 154.77 257.267 153.969C256.749 153.636 254.415 152.121 253.682 150.963C252.948 149.805 252.394 148.314 252.856 147.033C252.956 146.731 253.117 146.454 253.33 146.218C253.543 145.982 253.802 145.793 254.092 145.664C254.382 145.534 254.695 145.466 255.013 145.464C255.33 145.462 255.645 145.526 255.936 145.653C257.679 146.491 258.221 149.934 257.981 151.64C257.981 151.733 257.735 152.663 257.556 153.34C257.735 152.977 257.932 152.607 258.098 152.256C258.714 150.938 259.238 149.694 259.669 148.56C259.915 147.944 260.119 147.328 260.285 146.817C259.946 146.201 258.628 143.829 258.499 142.505C258.369 141.181 258.579 139.554 259.583 138.63C259.812 138.406 260.086 138.232 260.386 138.12C260.687 138.008 261.008 137.961 261.328 137.981C261.648 138.002 261.96 138.089 262.245 138.238C262.529 138.387 262.778 138.594 262.977 138.846C264.135 140.392 263.032 143.694 262.034 145.105C261.948 145.222 260.377 146.953 260.359 146.953V146.916C260.186 147.439 260.002 148 259.78 148.603C259.373 149.718 258.893 150.981 258.289 152.299C257.646 153.745 256.92 155.151 256.115 156.513C255.218 158.039 254.187 159.482 253.035 160.825L252.992 160.874C253.472 160.572 254.84 159.79 254.957 159.741C256.546 159.063 260.008 158.675 261.277 160.135C261.48 160.383 261.629 160.67 261.714 160.979C261.8 161.288 261.819 161.612 261.771 161.929C261.724 162.246 261.61 162.549 261.438 162.82C261.266 163.09 261.039 163.321 260.772 163.498C259.657 164.287 257.981 164.114 256.755 163.739C255.369 163.301 253.059 161.188 252.844 161.022C251.643 162.362 250.352 163.62 248.981 164.786C248.181 165.476 247.361 166.141 246.517 166.794C246.942 166.554 247.324 166.338 247.38 166.313C248.963 165.636 252.425 165.248 253.694 166.708C253.898 166.955 254.048 167.243 254.134 167.552C254.219 167.861 254.239 168.185 254.191 168.502C254.144 168.819 254.03 169.123 253.857 169.393C253.684 169.664 253.457 169.895 253.189 170.071C252.08 170.86 250.404 170.687 249.179 170.311C247.953 169.936 245.901 168.161 245.372 167.687L244.405 168.432C242.852 169.621 241.325 170.798 239.815 171.999C239.292 172.424 238.793 172.862 238.288 173.293C238.67 173.077 238.984 172.898 239.039 172.88C240.622 172.196 244.084 171.814 245.353 173.268C245.558 173.515 245.709 173.803 245.795 174.112C245.882 174.421 245.902 174.745 245.854 175.063C245.806 175.38 245.692 175.684 245.519 175.955C245.345 176.225 245.117 176.456 244.848 176.631C243.733 177.42 242.064 177.247 240.838 176.878C239.612 176.508 237.758 174.894 237.142 174.334C236.643 174.796 236.138 175.252 235.676 175.726C235.362 176.052 235.06 176.342 234.752 176.693C234.444 177.044 234.136 177.358 233.865 177.691C233.329 178.344 232.768 179.022 232.257 179.674C231.9 180.124 231.567 180.562 231.234 180.999C231.746 180.574 232.781 179.767 232.873 179.699C234.333 178.787 237.696 177.882 239.175 179.126C239.413 179.341 239.604 179.604 239.735 179.897C239.866 180.191 239.933 180.508 239.933 180.829C239.933 181.151 239.866 181.468 239.735 181.762C239.604 182.055 239.413 182.318 239.175 182.533C238.195 183.475 236.52 183.58 235.251 183.383C233.846 183.161 231.308 181.535 230.994 181.301C230.44 182.028 229.91 182.742 229.417 183.426C227.711 185.785 226.38 187.812 225.469 189.247L225.376 189.389L224.194 188.816C224.255 188.724 224.317 188.637 224.378 188.539C225.333 187.11 226.725 185.089 228.499 182.742C229.06 182.003 229.67 181.221 230.304 180.42C229.644 179.701 229.027 178.945 228.456 178.153C227.095 178.683 224.268 178.707 223.904 178.707C223.849 179.619 223.799 180.506 223.762 181.344C223.639 184.258 223.652 186.685 223.682 188.379V188.582L222.383 187.966C222.383 186.284 222.45 183.999 222.623 181.307C222.678 180.377 222.758 179.385 222.851 178.375C222.487 178.282 219.549 177.525 218.44 176.638C217.436 175.837 216.377 174.531 216.414 173.17C216.41 172.848 216.475 172.53 216.603 172.236C216.731 171.941 216.92 171.677 217.157 171.461C217.394 171.245 217.675 171.081 217.98 170.98C218.285 170.88 218.607 170.845 218.927 170.878C220.843 171.124 222.444 174.217 222.764 175.911C222.764 176.009 222.863 177.143 222.9 177.82C222.943 177.401 222.974 177.001 223.017 176.588C223.103 175.744 223.214 174.9 223.331 173.995C223.399 173.564 223.473 173.126 223.541 172.683C223.608 172.239 223.725 171.784 223.818 171.328C224.052 170.28 224.335 169.227 224.649 168.174C223.91 168.094 221.292 167.786 220.165 167.145C219.038 166.504 217.806 165.371 217.639 164.022C217.587 163.705 217.602 163.38 217.684 163.069C217.766 162.758 217.912 162.468 218.114 162.218C218.316 161.968 218.569 161.764 218.855 161.618C219.142 161.472 219.456 161.389 219.777 161.373C221.705 161.324 223.762 164.139 224.329 165.765C224.366 165.87 224.643 167.083 224.779 167.755C224.976 167.139 225.161 166.486 225.395 165.858C226.011 164.01 226.707 162.199 227.384 160.369C227.594 159.808 227.791 159.248 228 158.694C227.736 158.694 224.612 158.367 223.356 157.646C222.241 157.03 220.997 155.872 220.824 154.523C220.774 154.206 220.79 153.882 220.873 153.572C220.955 153.262 221.102 152.973 221.304 152.723C221.505 152.474 221.757 152.269 222.043 152.123C222.328 151.977 222.641 151.892 222.962 151.874C224.896 151.825 226.953 154.64 227.52 156.266C227.563 156.39 227.957 158.115 228.037 158.589C228.481 157.357 228.918 156.125 229.269 154.893C229.79 153.23 230.202 151.534 230.501 149.817C230.378 149.817 227.113 149.509 225.832 148.77C224.711 148.154 223.467 146.996 223.3 145.647C223.25 145.33 223.267 145.006 223.349 144.696C223.432 144.386 223.579 144.097 223.78 143.847C223.982 143.597 224.233 143.393 224.519 143.246C224.804 143.1 225.118 143.015 225.438 142.998C227.366 142.955 229.423 145.764 229.99 147.39C230.027 147.501 230.329 148.831 230.458 149.466H230.569C230.823 147.731 230.922 145.976 230.865 144.224C230.865 143.257 230.773 142.339 230.68 141.439C230.064 141.439 227.267 141.439 226.035 140.91C224.803 140.38 223.491 139.407 223.171 138.082C223.086 137.772 223.067 137.447 223.115 137.129C223.164 136.811 223.28 136.507 223.454 136.236C223.628 135.966 223.858 135.735 224.128 135.56C224.397 135.384 224.701 135.268 225.019 135.218C226.935 134.959 229.288 137.528 230.033 139.086C230.07 139.172 230.391 140.078 230.606 140.737C230.563 140.337 230.52 139.918 230.464 139.536C230.274 138.088 230.002 136.77 229.756 135.612C229.608 134.953 229.467 134.38 229.325 133.807C228.709 133.499 226.294 132.23 225.463 131.201C224.631 130.173 223.904 128.701 224.231 127.376C224.301 127.06 224.437 126.763 224.631 126.504C224.825 126.245 225.072 126.03 225.354 125.874C225.637 125.717 225.95 125.622 226.273 125.596C226.595 125.569 226.919 125.611 227.224 125.719Z" fill="white"/>
<path opacity="0.5" d="M262.139 155.491C260.63 155.429 257.612 153.883 257.612 153.877C257.612 153.871 259.232 152.201 259.349 152.109C260.698 151.031 263.938 149.75 265.546 150.815C265.808 151.001 266.028 151.239 266.193 151.515C266.357 151.791 266.461 152.098 266.499 152.417C266.537 152.736 266.507 153.059 266.412 153.366C266.317 153.672 266.158 153.956 265.946 154.197C265.084 155.232 263.427 155.54 262.139 155.491Z" fill="white"/>
</g>
<path d="M244.515 193.288C244.515 193.288 235.355 171.204 230.23 172.165C225.105 173.126 239.008 207.363 239.008 207.363C239.008 207.363 222.894 176.964 211.904 176.964C200.915 176.964 215.933 210.567 229.848 221.766C229.848 221.766 207.876 198.087 195.057 203.205C182.238 208.324 220.695 232.324 220.695 232.324C220.695 232.324 198.352 225.283 200.915 230.722C203.477 236.161 210.438 237.122 210.438 237.122L185.182 238.404H273.085L253.306 236.482C253.306 236.482 273.818 226.244 268.324 222.086C262.829 217.928 250.743 226.885 250.743 226.885C250.743 226.885 271.619 203.846 267.591 195.204C263.562 186.561 245.612 210.887 245.612 210.887C245.612 210.887 260.266 179.847 257.316 174.407C254.365 168.968 244.515 193.288 244.515 193.288Z" fill="#6CA77C"/>
<path opacity="0.4" d="M244.515 193.288C244.515 193.288 235.355 171.204 230.23 172.165C225.105 173.126 239.008 207.363 239.008 207.363C239.008 207.363 222.894 176.964 211.904 176.964C200.915 176.964 215.933 210.567 229.848 221.766C229.848 221.766 207.876 198.087 195.057 203.205C182.238 208.324 220.695 232.324 220.695 232.324C220.695 232.324 198.352 225.283 200.915 230.722C203.477 236.161 210.438 237.122 210.438 237.122L185.182 238.404H273.085L253.306 236.482C253.306 236.482 273.818 226.244 268.324 222.086C262.829 217.928 250.743 226.885 250.743 226.885C250.743 226.885 271.619 203.846 267.591 195.204C263.562 186.561 245.612 210.887 245.612 210.887C245.612 210.887 260.266 179.847 257.316 174.407C254.365 168.968 244.515 193.288 244.515 193.288Z" fill="white"/>
<path d="M247.447 194.446C239.384 218.255 239.384 235.102 239.384 235.102C239.384 235.102 248.907 235.466 258.8 228.141" stroke="#263238" stroke-linecap="round" stroke-linejoin="round"/>
<path d="M243.419 207.271C241.756 200.152 239.55 193.171 236.821 186.389" stroke="#263238" stroke-linecap="round" stroke-linejoin="round"/>
<path d="M219.61 193.35L240.117 223.749C240.117 223.749 254.039 212.045 258.8 205.436" stroke="#263238" stroke-linecap="round" stroke-linejoin="round"/>
<path d="M239.754 231.079C239.754 231.079 218.144 220.823 209.354 214.983" stroke="#263238" stroke-linecap="round" stroke-linejoin="round"/>
<path d="M220.355 67.1436H154.542C151.847 67.1436 149.663 69.3278 149.663 72.0223V233.525C149.663 236.22 151.847 238.404 154.542 238.404H220.355C223.05 238.404 225.234 236.22 225.234 233.525V72.0223C225.234 69.3278 223.05 67.1436 220.355 67.1436Z" fill="white" stroke="#263238" stroke-linecap="round" stroke-linejoin="round"/>
<path d="M222.709 97.1246C222.442 97.1246 222.187 97.0188 221.999 96.8305C221.81 96.6422 221.705 96.3868 221.705 96.1205V82.6609C221.724 82.4074 221.839 82.1707 222.026 81.998C222.213 81.8254 222.457 81.7295 222.712 81.7295C222.966 81.7295 223.211 81.8254 223.398 81.998C223.584 82.1707 223.699 82.4074 223.719 82.6609V96.0959C223.721 96.2301 223.697 96.3634 223.647 96.4881C223.598 96.6129 223.524 96.7264 223.43 96.8222C223.336 96.918 223.223 96.994 223.1 97.046C222.976 97.0979 222.843 97.1246 222.709 97.1246Z" fill="#263238"/>
<path d="M222.709 109.592C222.442 109.592 222.187 109.486 221.999 109.298C221.81 109.109 221.705 108.854 221.705 108.588V101.066C221.724 100.813 221.839 100.576 222.026 100.403C222.213 100.231 222.457 100.135 222.712 100.135C222.966 100.135 223.211 100.231 223.398 100.403C223.584 100.576 223.699 100.813 223.719 101.066V108.588C223.717 108.854 223.61 109.11 223.421 109.298C223.232 109.486 222.976 109.592 222.709 109.592Z" fill="#263238"/>
<path d="M214.657 67.1436H148.844C146.15 67.1436 143.965 69.3278 143.965 72.0223V233.525C143.965 236.22 146.15 238.404 148.844 238.404H214.657C217.352 238.404 219.536 236.22 219.536 233.525V72.0223C219.536 69.3278 217.352 67.1436 214.657 67.1436Z" fill="#263238" stroke="#263238" stroke-linecap="round" stroke-linejoin="round"/>
<path d="M214.503 78.5459H148.998V225.437H214.503V78.5459Z" fill="#6CA77C"/>
<path d="M172.024 73.8516H189.463" stroke="white" stroke-width="3" stroke-linecap="round" stroke-linejoin="round"/>
<path d="M179.404 230.636C179.404 231.837 178.652 232.81 177.722 232.81C176.792 232.81 176.046 231.837 176.046 230.636C176.046 229.435 176.798 228.455 177.722 228.455C178.646 228.455 179.404 229.428 179.404 230.636Z" fill="white"/>
<path d="M181.751 115.099C188.024 115.099 193.11 109.17 193.11 101.855C193.11 94.5409 188.024 88.6113 181.751 88.6113C175.477 88.6113 170.392 94.5409 170.392 101.855C170.392 109.17 175.477 115.099 181.751 115.099Z" fill="white"/>
<path d="M181.751 101.688C184.132 101.688 186.063 99.4353 186.063 96.6558C186.063 93.8763 184.132 91.623 181.751 91.623C179.37 91.623 177.439 93.8763 177.439 96.6558C177.439 99.4353 179.37 101.688 181.751 101.688Z" fill="#263238" stroke="#263238" stroke-linecap="round" stroke-linejoin="round"/>
<path d="M181.751 103.025C177.439 103.025 173.909 106.333 173.909 110.417C173.913 110.797 173.948 111.177 174.014 111.551C174.97 112.667 176.157 113.563 177.493 114.178C178.828 114.792 180.281 115.11 181.751 115.11C183.221 115.11 184.674 114.792 186.009 114.178C187.345 113.563 188.531 112.667 189.488 111.551C189.549 111.176 189.582 110.797 189.586 110.417C189.586 106.333 186.075 103.025 181.751 103.025Z" fill="#263238" stroke="#263238" stroke-linecap="round" stroke-linejoin="round"/>
<path d="M195.561 159.544H167.94C167.209 159.515 166.519 159.197 166.023 158.66C165.526 158.123 165.263 157.41 165.291 156.679V139.628C165.291 129.803 172.683 121.808 181.751 121.808C190.818 121.808 198.204 129.816 198.204 139.628V156.667C198.22 157.03 198.164 157.392 198.039 157.732C197.915 158.073 197.725 158.386 197.479 158.653C197.234 158.921 196.938 159.137 196.609 159.29C196.28 159.442 195.924 159.529 195.561 159.544ZM170.583 153.815H192.913V139.647C192.913 132.982 187.904 127.555 181.751 127.555C175.597 127.555 170.583 132.982 170.583 139.647V153.815Z" fill="#263238"/>
<path d="M200.927 147.907H162.575V184.19H200.927V147.907Z" fill="white"/>
<path d="M187.338 172.886L184.492 166.042C185.121 165.566 185.63 164.949 185.978 164.241C186.326 163.533 186.503 162.753 186.494 161.964C186.494 159.235 184.455 157.036 181.936 157.036C179.416 157.036 177.383 159.241 177.383 161.964C177.374 162.753 177.549 163.532 177.896 164.241C178.243 164.949 178.751 165.566 179.379 166.042L176.54 172.886H187.338Z" fill="#263238" stroke="#263238" stroke-linecap="round" stroke-linejoin="round"/>
<path d="M170.065 216.794C170.124 216.837 170.196 216.861 170.269 216.862C170.321 216.862 170.373 216.849 170.419 216.824C170.465 216.799 170.504 216.764 170.534 216.72L214.504 156.913V155.779L170.016 216.326C169.989 216.36 169.968 216.399 169.956 216.441C169.943 216.483 169.939 216.527 169.944 216.57C169.948 216.614 169.961 216.656 169.982 216.694C170.003 216.733 170.031 216.767 170.065 216.794Z" fill="white"/>
<path d="M205.658 100.094C205.632 100.129 205.613 100.17 205.602 100.212C205.592 100.255 205.59 100.3 205.597 100.343C205.604 100.387 205.619 100.429 205.642 100.466C205.666 100.504 205.696 100.536 205.732 100.562C205.804 100.613 205.893 100.634 205.981 100.62C206.068 100.607 206.147 100.559 206.2 100.488L214.504 89.1967V88.0879L205.658 100.094Z" fill="white"/>
<path d="M148.998 178.307L203.28 104.491C203.332 104.419 203.354 104.33 203.34 104.242C203.326 104.154 203.278 104.075 203.206 104.023C203.134 103.971 203.044 103.949 202.957 103.963C202.869 103.977 202.79 104.025 202.738 104.097L149.023 177.173L148.998 178.307Z" fill="white"/>
<path d="M164.965 224.076C165.017 224.075 165.069 224.062 165.116 224.039C165.163 224.015 165.204 223.982 165.236 223.94L168.316 219.776C168.342 219.74 168.361 219.7 168.371 219.657C168.382 219.614 168.384 219.57 168.377 219.526C168.37 219.483 168.355 219.441 168.331 219.404C168.308 219.366 168.278 219.333 168.242 219.308C168.17 219.256 168.08 219.235 167.993 219.249C167.905 219.263 167.827 219.311 167.774 219.382L164.694 223.54C164.667 223.575 164.648 223.615 164.637 223.657C164.626 223.7 164.624 223.744 164.63 223.788C164.636 223.831 164.651 223.873 164.674 223.911C164.696 223.949 164.726 223.982 164.762 224.008C164.819 224.054 164.891 224.078 164.965 224.076Z" fill="white"/>
<path d="M214.504 168.889L178.406 217.99C178.369 218.04 178.347 218.099 178.342 218.16C178.337 218.222 178.35 218.284 178.378 218.339C178.406 218.394 178.449 218.44 178.502 218.472C178.555 218.504 178.615 218.52 178.677 218.52C178.73 218.521 178.782 218.509 178.829 218.485C178.876 218.462 178.917 218.427 178.948 218.384L214.504 170.016V168.889Z" fill="white"/>
<path d="M87.7244 99.8786C88.3352 98.5253 88.6301 97.0507 88.5868 95.5666C88.5868 92.8131 85.2542 91.2176 81.3364 90.7803C77.4187 90.3429 75.6816 91.9384 76.2606 92.9548C76.8623 93.793 77.5968 94.5275 78.4351 95.1292C78.4351 95.1292 74.5173 92.9548 71.9055 94.698C69.2936 96.4413 73.0697 95.7144 72.3428 97.4516C71.616 99.1887 67.5565 98.468 66.5401 103.106C65.5237 107.745 68.4251 112.39 65.8132 114.422C63.2014 116.455 55.3412 113.695 53.0497 118.771C50.7582 123.847 54.0107 126.102 48.5036 129.293C42.9966 132.483 38.9803 135.6 40.5757 143.43C42.1712 151.259 47.3948 154 57.6944 151.235C67.9939 148.469 67.267 142.241 70.6304 135.835C73.9937 129.428 79.1928 130.759 80.7882 127.13C82.3836 123.502 80.3508 119.153 80.4987 115.815C80.6465 112.476 83.9791 111.755 85.285 107.807C86.5909 103.858 87.7244 99.8786 87.7244 99.8786Z" fill="#263238" stroke="#263238" stroke-linecap="round" stroke-linejoin="round"/>
<path d="M41.7771 143.282C41.507 143.828 41.3698 144.429 41.3767 145.038" stroke="white" stroke-width="0.5" stroke-linecap="round" stroke-linejoin="round"/>
<path d="M82.1557 97.0021C82.1557 97.0021 80.3447 94.9077 83.8313 95.881C88.2233 97.113 83.0674 102.195 81.0839 103.218C77.1045 105.257 71.8439 104.604 68.7639 108.312C65.9673 111.663 69.7433 115.156 68.0678 117.811C66.3923 120.466 59.6841 118.926 57.4541 122.123C55.2242 125.32 61.5013 132.182 55.0764 135.952C50.4317 138.681 45.3436 139.728 42.8857 141.89" stroke="white" stroke-width="0.5" stroke-linecap="round" stroke-linejoin="round"/>
<path d="M71.7394 109.396C71.3587 110.286 71.2432 111.268 71.4068 112.223C71.9612 114.595 75.1767 119.067 72.2445 121.58C69.3124 124.093 64.2796 123.952 63.448 126.896C62.6164 129.841 64.2858 137.929 61.4953 141.68C58.7048 145.432 53.2532 145.173 50.3211 147.686C47.3889 150.199 47.8078 151.598 47.8078 151.598" stroke="white" stroke-width="0.5" stroke-linecap="round" stroke-linejoin="round"/>
<path d="M73.2174 106.636C72.9635 106.995 72.7291 107.367 72.5151 107.751" stroke="white" stroke-width="0.5" stroke-linecap="round" stroke-linejoin="round"/>
<path d="M89.6034 143.06L90.3118 148.604C90.3118 148.604 94.0078 152.3 96.7243 154.585C99.4409 156.871 106.402 161.706 106.402 161.706L102.872 162.71C102.872 162.71 91.3343 155.873 89.0551 155.318C86.7759 154.764 85.0696 151.474 84.3612 150.477C83.6528 149.479 87.7492 142.062 89.6034 143.06Z" fill="white" stroke="#263238" stroke-linecap="round" stroke-linejoin="round"/>
<path d="M96.6501 233.261C96.6501 233.261 100.137 236.206 101.578 237.191C103.02 238.177 104.701 238.62 104.436 239.156C104.171 239.692 103.451 240.228 100.057 239.772C96.6624 239.316 95.683 238.165 95.0546 237.986C94.4263 237.807 92.911 238.257 91.7529 237.542C90.5948 236.828 92.4305 232.571 92.4305 232.571C92.9392 233.166 93.6419 233.561 94.4142 233.688C95.1864 233.814 95.9785 233.663 96.6501 233.261Z" fill="white" stroke="#263238" stroke-linecap="round" stroke-linejoin="round"/>
<path d="M104.424 239.157C104.427 239.128 104.427 239.099 104.424 239.07C102.465 239.25 100.489 239.065 98.597 238.522C96.404 238.005 95.7572 236.841 93.669 236.841C92.8495 236.848 92.0348 236.715 91.2604 236.446C91.238 236.652 91.2661 236.86 91.3423 237.052C91.4186 237.244 91.5406 237.415 91.6978 237.549C92.8559 238.263 94.3774 237.814 94.9995 237.992C95.6217 238.171 96.6073 239.335 100.001 239.779C103.396 240.222 104.153 239.693 104.424 239.157Z" fill="white" stroke="#263238" stroke-linecap="round" stroke-linejoin="round"/>
<path d="M78.3983 114.207C78.3983 114.207 79.0697 118.728 78.2073 120.552C77.3449 122.375 74.6469 122.572 72.343 122.96C70.0392 123.348 64.7477 125.363 65.3206 130.556C65.8935 135.749 72.534 146.997 72.534 150.169C72.534 153.342 70.5135 154.974 68.3021 161.128C66.0906 167.282 66.3801 178.727 67.0701 186.131C67.5757 191.018 68.541 195.846 69.9529 200.552C69.9529 200.552 64.4089 209.496 61.9449 213.34C59.4809 217.184 50.8569 233.92 50.8569 233.92C50.8569 233.92 50.8569 234.493 52.1998 234.881C53.1446 235.111 54.122 235.176 55.0889 235.072C55.0889 235.072 71.6223 215.169 74.7023 211.806C77.7823 208.443 80.6652 202.566 81.0471 199.88C81.429 197.195 80.9547 180.747 80.9547 180.747C80.9547 180.747 84.4105 189.014 87.1147 193.246C88.7549 195.836 90.2599 198.509 91.6238 201.254C91.2451 204.734 91.2451 208.246 91.6238 211.726C92.2953 216.531 91.7285 231.968 92.4 233.218C93.0714 234.469 95.6771 233.945 96.2561 233.372C96.8352 232.799 97.1062 229.06 97.1062 229.06C97.1062 229.06 98.2581 217.356 98.9542 211.849C99.6503 206.342 100.802 201.654 100.402 200.404C100.001 199.153 97.6113 185.786 95.7818 179.46C93.9523 173.134 88.3898 161.288 87.1578 158.214C85.9258 155.14 85.2297 152.344 85.4269 151.383C85.624 150.422 89.3693 144.656 90.3549 143.116C90.9167 142.072 91.2266 140.911 91.2598 139.726C91.293 138.541 91.0485 137.364 90.5458 136.291C89.3939 133.79 90.5458 130.42 90.3549 128.406C90.1639 126.392 87.1825 125.517 85.6425 124.753C84.1025 123.989 83.5234 122.252 83.5234 120.811C83.6175 119.596 83.9109 118.406 84.392 117.287C84.392 117.287 79.6488 114.207 78.3983 114.207Z" fill="white" stroke="#263238" stroke-linecap="round" stroke-linejoin="round"/>
<path d="M90.0528 134.775C89.5463 133.487 89.1244 132.168 88.79 130.826" stroke="#263238" stroke-linecap="round" stroke-linejoin="round"/>
<path d="M77.5664 145.481C77.5664 145.481 79.3035 145.863 82.7839 144.126" stroke="#263238" stroke-linecap="round" stroke-linejoin="round"/>
<path d="M95.8003 179.398C94.057 173.337 88.8888 162.267 87.3426 158.614C79.9506 161.386 73.0391 159.021 69.7928 157.493C69.3246 158.516 68.8195 159.698 68.3021 161.128C66.0906 167.288 66.3801 178.727 67.0701 186.131C67.5757 191.018 68.541 195.846 69.9529 200.552C69.9529 200.552 64.4089 209.496 61.9449 213.34C59.4809 217.184 50.8569 233.92 50.8569 233.92C50.8569 233.92 50.8569 234.493 52.1998 234.881C53.1446 235.111 54.122 235.176 55.0889 235.072C55.0889 235.072 71.6223 215.169 74.7023 211.806C77.7823 208.443 80.6652 202.566 81.0471 199.88C81.429 197.194 80.9547 180.747 80.9547 180.747C80.9547 180.747 84.4105 189.014 87.1147 193.246C88.7549 195.836 90.2599 198.508 91.6238 201.254C91.2451 204.734 91.2451 208.245 91.6238 211.726C92.2953 216.531 91.7285 231.968 92.4 233.218C93.0714 234.468 95.6771 233.945 96.2561 233.372C96.8352 232.799 97.1062 229.06 97.1062 229.06C97.1062 229.06 98.2581 217.356 98.9542 211.849C99.6503 206.342 100.802 201.654 100.402 200.404C100.001 199.153 97.6298 185.743 95.8003 179.398Z" fill="#263238" stroke="#263238" stroke-linecap="round" stroke-linejoin="round"/>
<path d="M133.462 173.294V172.037H134.516V162.169H133.462H123.064H122.011V172.037H123.064V173.294H122.005V175.585H126.064V174.815H130.463V175.585H134.522V173.294H133.462Z" fill="#6CA77C" stroke="#263238" stroke-linecap="round" stroke-linejoin="round"/>
<path d="M66.2568 159.218H138.797C139.088 159.218 139.367 159.334 139.572 159.539C139.778 159.745 139.893 160.024 139.893 160.315V162.52C139.893 162.811 139.778 163.09 139.572 163.295C139.367 163.501 139.088 163.616 138.797 163.616H66.2568V159.212V159.218Z" fill="#6CA77C" stroke="#263238" stroke-linecap="round" stroke-linejoin="round"/>
<path d="M118.321 158.559H113.904C113.567 158.559 113.294 158.832 113.294 159.168V163.671C113.294 164.008 113.567 164.281 113.904 164.281H118.321C118.658 164.281 118.931 164.008 118.931 163.671V159.168C118.931 158.832 118.658 158.559 118.321 158.559Z" fill="#6CA77C" stroke="#263238" stroke-linecap="round" stroke-linejoin="round"/>
<path d="M68.5262 163.272C69.5482 157.031 65.3172 151.143 59.0758 150.121C52.8345 149.099 46.9464 153.33 45.9243 159.571C44.9023 165.812 49.1333 171.701 55.3747 172.723C61.616 173.745 67.5041 169.514 68.5262 163.272Z" fill="#6CA77C" stroke="#263238" stroke-linecap="round" stroke-linejoin="round"/>
<path d="M59.5794 161.392C60.2433 161.074 60.8067 160.579 61.2077 159.962C61.6087 159.345 61.8318 158.629 61.8524 157.893C61.8524 155.645 59.7827 153.821 57.2263 153.821C54.6699 153.821 52.6001 155.669 52.6001 157.893C52.6194 158.629 52.8419 159.346 53.2431 159.963C53.6442 160.581 54.2084 161.075 54.8731 161.392C54.2088 161.711 53.6451 162.207 53.2442 162.825C52.8432 163.443 52.6203 164.16 52.6001 164.897C52.6001 167.145 54.6699 168.969 57.2263 168.969C59.7827 168.969 61.8524 167.121 61.8524 164.897C61.8308 164.161 61.6074 163.444 61.2066 162.826C60.8058 162.208 60.2429 161.712 59.5794 161.392Z" fill="white" stroke="#263238" stroke-linecap="round" stroke-linejoin="round"/>
<path d="M104.141 163.715C104.141 163.715 107.726 165.23 108.835 165.23C109.943 165.23 111.225 164.115 111.859 162.766C112.494 161.417 112.475 160.777 112.099 161.097L111.305 161.713C111.305 161.713 111.921 160.364 111.225 160.524C110.743 160.685 110.342 161.027 110.11 161.479C110.11 161.479 110.03 160.284 109.395 160.863C108.975 161.243 108.601 161.671 108.28 162.138C108.28 162.138 108.2 160.629 107.8 161.023C107.399 161.417 105.896 163.567 105.896 163.567L104.141 163.715Z" fill="white" stroke="#263238" stroke-linecap="round" stroke-linejoin="round"/>
<path d="M108.28 162.125C108.28 162.125 108.04 164.035 106.851 164.355L108.28 162.125Z" fill="white"/>
<path d="M108.28 162.125C108.28 162.125 108.04 164.035 106.851 164.355" stroke="#263238" stroke-linecap="round" stroke-linejoin="round"/>
<path d="M110.11 161.491C110.11 161.491 109.494 164.51 108.521 164.99L110.11 161.491Z" fill="white"/>
<path d="M110.11 161.491C110.11 161.491 109.494 164.51 108.521 164.99" stroke="#263238" stroke-linecap="round" stroke-linejoin="round"/>
<path d="M111.305 161.725C110.987 162.826 110.56 163.893 110.03 164.909L111.305 161.725Z" fill="white"/>
<path d="M111.305 161.725C110.987 162.826 110.56 163.893 110.03 164.909" stroke="#263238" stroke-linecap="round" stroke-linejoin="round"/>
<path d="M85.4143 124.568C84.7938 124.149 84.2913 123.578 83.9548 122.909C83.6183 122.241 83.459 121.497 83.4923 120.749C83.6028 119.554 83.9065 118.385 84.3917 117.287C84.3917 117.287 79.6793 114.207 78.4288 114.207C78.4288 114.207 79.1003 118.728 78.2379 120.552C77.9552 121.119 77.4943 121.578 76.9258 121.858C78.0647 124.924 79.608 127.824 81.515 130.482C83.2459 132.656 84.0899 128.073 85.4143 124.568Z" fill="white" stroke="#263238" stroke-linecap="round" stroke-linejoin="round"/>
<path d="M70.8708 123.582C69.6953 123.783 68.5825 124.254 67.6204 124.958C66.6583 125.663 65.8731 126.581 65.3268 127.641C63.4295 131.301 55.1381 147.908 55.8465 148.9C59.8752 154.567 74.5298 158.645 76.0205 160.135C77.5108 161.694 79.1465 163.107 80.9054 164.355C82.3961 165.304 85.3714 164.897 85.9135 164.626C86.4556 164.355 86.8621 163.135 85.9135 163.135C85.551 163.14 85.1979 163.02 84.9132 162.796C84.6284 162.572 84.4292 162.257 84.3488 161.903C84.2133 161.361 85.8396 162.445 86.6527 162.039C87.4658 161.632 84.8355 160.148 84.0224 159.47C83.2092 158.793 82.5316 157.85 81.4475 157.85C80.3633 157.85 78.3244 157.85 78.3244 157.85C78.3244 157.85 73.3348 154.234 70.3164 151.542C67.9677 149.423 65.4058 147.553 62.6718 145.961L71.8194 130.912" fill="white"/>
<path d="M70.8708 123.582C69.6953 123.783 68.5825 124.254 67.6204 124.958C66.6583 125.663 65.8731 126.581 65.3268 127.641C63.4295 131.301 55.1381 147.908 55.8465 148.9C59.8752 154.567 74.5298 158.645 76.0205 160.135C77.5108 161.694 79.1465 163.107 80.9054 164.355C82.3961 165.304 85.3714 164.897 85.9135 164.626C86.4556 164.355 86.8621 163.135 85.9135 163.135C85.551 163.14 85.1979 163.02 84.9132 162.796C84.6284 162.572 84.4292 162.257 84.3488 161.903C84.2133 161.361 85.8396 162.445 86.6527 162.039C87.4658 161.632 84.8355 160.148 84.0224 159.47C83.2092 158.793 82.5316 157.85 81.4475 157.85C80.3633 157.85 78.3244 157.85 78.3244 157.85C78.3244 157.85 73.3348 154.234 70.3164 151.542C67.9677 149.423 65.4058 147.553 62.6718 145.961L71.8194 130.912" stroke="#263238" stroke-linecap="round" stroke-linejoin="round"/>
<path d="M84.0162 159.476C83.2031 158.798 82.5255 157.856 81.4413 157.856C80.3571 157.856 78.3182 157.856 78.3182 157.856C78.3182 157.856 73.3286 154.24 70.3102 151.548C67.9615 149.429 65.3997 147.559 62.6656 145.967L66.3247 139.943C64.454 138.81 62.3142 138.2 60.1277 138.175C57.6637 143.312 55.4523 148.388 55.8157 148.924C59.8443 154.591 74.499 158.669 75.9897 160.16C77.48 161.719 79.1157 163.132 80.8746 164.379C82.3653 165.328 85.3406 164.922 85.8827 164.65C86.4247 164.379 86.8313 163.16 85.8827 163.16C85.5202 163.165 85.1671 163.045 84.8824 162.821C84.5976 162.596 84.3984 162.281 84.318 161.928C84.1825 161.386 85.8087 162.47 86.6219 162.063C87.435 161.657 84.8293 160.16 84.0162 159.476Z" fill="white" stroke="#263238" stroke-linecap="round" stroke-linejoin="round"/>
<path d="M88.975 107.572C88.4946 106.611 88.4946 105.841 88.6855 104.492C88.8765 103.143 87.7246 99.8721 87.7246 99.8721C86.548 101.905 83.1477 103.112 81.6446 103.568C79.9876 104.073 82.4085 105.219 82.1498 106.753C81.891 108.287 78.5831 109.174 78.5831 109.174C78.5831 109.174 77.616 107.184 76.2731 107.184C74.9302 107.184 73.9754 110.264 74.7393 111.896C74.9383 112.349 75.285 112.72 75.7226 112.949C76.1602 113.179 76.6627 113.253 77.1478 113.159C77.1478 113.159 77.0554 116.048 78.8788 116.911C80.8243 117.839 82.854 118.579 84.9402 119.122C86.0922 119.313 87.2441 118.74 87.7246 117.009C88.1003 115.265 88.3576 113.497 88.4946 111.718C89.3012 111.19 90.0433 110.57 90.706 109.87C91.168 109.204 89.4555 108.533 88.975 107.572Z" fill="white" stroke="#263238" stroke-linecap="round" stroke-linejoin="round"/>
<path d="M87.1022 107.616C87.1022 108.146 86.9297 108.571 86.7203 108.571C86.5109 108.571 86.3384 108.146 86.3384 107.616C86.3384 107.086 86.5109 106.661 86.7203 106.661C86.9297 106.661 87.1022 107.086 87.1022 107.616Z" fill="#263238"/>
<path d="M85.4453 106.027C85.4453 106.027 86.4679 104.875 87.2317 105.134" stroke="#263238" stroke-linecap="round" stroke-linejoin="round"/>
<path d="M87.2314 113.924C86.7697 114.063 86.2797 114.079 85.8098 113.971C85.3399 113.863 84.9062 113.634 84.5518 113.308" stroke="#263238" stroke-linecap="round" stroke-linejoin="round"/>
<path d="M50.8998 233.92C50.8998 233.92 48.6022 238.528 48.6884 239.156C48.7746 239.784 53.333 243.086 55.4644 244.244C57.5958 245.402 61.4519 245.587 61.1809 243.979C60.9098 242.371 57.2508 241.3 56.3576 238.885C55.8819 237.636 55.4707 236.363 55.1256 235.072C53.6366 235.094 52.1716 234.695 50.8998 233.92Z" fill="white" stroke="#263238" stroke-linecap="round" stroke-linejoin="round"/>
<path d="M61.1931 244.004C59.553 244.224 57.8841 243.987 56.3698 243.32C53.0619 241.885 49.8587 238.953 48.9778 238.121C48.8214 238.453 48.7214 238.809 48.6821 239.174C48.7745 239.79 53.3268 243.105 55.4581 244.263C57.5895 245.421 61.4148 245.581 61.1931 244.004Z" fill="white" stroke="#263238" stroke-linecap="round" stroke-linejoin="round"/>
<circle cx="160.103" cy="8.00045" r="4.97701" stroke="white" stroke-width="2"/>
<circle cx="181.023" cy="8.00045" r="4.97701" stroke="white" stroke-width="2"/>
<rect x="122" y="2.02344" width="23.1609" height="11.954" rx="5.97701" fill="#F2F2F2"/>
</svg>
